<svg width="81" height="34" viewBox="0 0 81 34" fill="none" xmlns="http://www.w3.org/2000/svg">
<path d="M4.6298 0.5625V6.31729H8.87017L7.77402 10.4134H4.6298V26.3653C2.07692 26.3653 0 24.2884 0 21.7355V0.5625H4.6298Z" fill="white"/>
<path d="M18.8966 11.405C17.9014 11.405 16.9783 11.6647 16.1274 12.1695C15.262 12.6743 14.5841 13.3522 14.0937 14.2031C13.5745 15.0252 13.3149 15.9627 13.3149 17.0012L13.387 26.506H9.24759L9.21875 16.3666C9.21875 14.6935 9.65144 13.1502 10.5024 11.7223C11.3678 10.2945 12.5505 9.15504 14.0505 8.31851C15.5072 7.49639 17.0937 7.07812 18.7812 7.07812L19.7043 7.15024V11.4916C19.286 11.4339 19.0264 11.405 18.8966 11.405Z" fill="white"/>
<path d="M30.5769 26.1538C28.8606 26.1538 27.2596 25.7211 25.7885 24.8701C24.3173 24.0048 23.149 22.8365 22.3125 21.3509C21.4471 19.9086 21 18.3221 21 16.5769C21 14.8606 21.4327 13.2596 22.2837 11.7885C23.149 10.3173 24.3173 9.14904 25.8029 8.26923C27.2596 7.41827 28.8461 7 30.5769 7C32.2788 7 33.8509 7.41827 35.3221 8.25481C36.7932 9.09134 37.9615 10.2163 38.8413 11.6298C39.7067 13.0721 40.1538 14.6154 40.1538 16.2884L40.125 26.0384H36.173V24.3365C34.4567 25.548 32.5961 26.1538 30.5769 26.1538ZM33.375 11.7452C32.524 11.2548 31.6009 11.0096 30.5769 11.0096C29.5817 11.0096 28.6586 11.2692 27.8077 11.774C26.9423 12.2788 26.2644 12.9567 25.774 13.8077C25.2548 14.6298 24.9952 15.5673 24.9952 16.6057C24.9952 17.6009 25.2548 18.524 25.7596 19.375C26.2644 20.2404 26.9423 20.9182 27.7933 21.4086C28.6154 21.9278 29.5529 22.1875 30.5913 22.1875C31.5865 22.1875 32.5096 21.9279 33.3605 21.423C34.2259 20.9182 34.9038 20.2404 35.423 19.3894C35.9134 18.5384 36.1586 17.6154 36.1586 16.5913C36.1586 15.5961 35.899 14.6731 35.3942 13.8221C34.8894 12.9711 34.2115 12.2644 33.375 11.7452Z" fill="#F06523"/>
<path d="M50.5967 7.28125C51.9381 7.28125 53.3227 7.59855 54.765 8.24759C56.2073 8.89663 57.4333 9.96393 58.4429 11.4495C59.5534 13.1226 60.1015 14.9255 60.1015 16.8581C60.1015 17.3774 60.0727 17.8822 60.0006 18.3726L59.9284 18.3437V18.3726L45.3035 18.762C45.5919 19.5408 46.0102 20.2187 46.5727 20.7956C47.1352 21.3726 47.7987 21.8053 48.5487 22.0793C49.1544 22.3101 49.8179 22.4254 50.5246 22.4254C51.3323 22.4254 52.0967 22.2668 52.8323 21.9495C53.5679 21.6322 54.2025 21.1851 54.7217 20.5937L58.5727 22.0793C57.7073 23.4206 56.5534 24.4879 55.1111 25.2524C53.6688 26.0312 52.14 26.4206 50.5246 26.4206C49.1544 26.4206 47.7698 26.1033 46.3419 25.4543C44.914 24.8052 43.7025 23.7235 42.6785 22.2235C41.5535 20.5504 40.9766 18.7476 40.9766 16.8149C40.9766 15.6899 41.1929 14.5505 41.6112 13.4255C42.3179 11.5937 43.5006 10.1082 45.1448 8.96874C46.8035 7.84375 48.6063 7.28125 50.5967 7.28125ZM55.7458 14.8389C55.4861 14.1033 55.0823 13.4687 54.5198 12.9062C53.9717 12.3582 53.3083 11.9399 52.5583 11.6514C51.9525 11.4207 51.289 11.3053 50.5823 11.3053C49.4285 11.3053 48.3756 11.6226 47.4092 12.2572C46.4429 12.8918 45.7506 13.7716 45.3179 14.8678L45.2458 15.0841L55.7458 14.8389Z" fill="white"/>
<path d="M79.0108 21.7608C78.1454 23.1742 76.9771 24.2992 75.4916 25.1502C74.006 26.0011 72.4194 26.4194 70.7175 26.4194C69.0012 26.4194 67.4002 25.9867 65.9291 25.1358C64.4579 24.2704 63.2897 23.1021 62.4531 21.6165C61.5877 20.1742 61.1406 18.5877 61.1406 16.8425C61.1406 15.1262 61.5733 13.5252 62.4243 12.0541C63.2897 10.5829 64.4579 9.41464 65.9435 8.53484C67.4002 7.68388 68.9868 7.26561 70.7175 7.26561C72.7367 7.26561 74.5973 7.87138 76.2992 9.06849V2.63581L80.2512 0.515625L80.28 17.1166C80.3089 18.8041 79.8762 20.3473 79.0108 21.7608ZM73.5156 12.0108C72.6646 11.5204 71.7416 11.2752 70.7175 11.2752C69.7223 11.2752 68.7993 11.5348 67.9483 12.0396C67.0829 12.5444 66.405 13.2223 65.9146 14.0733C65.3954 14.8954 65.1358 15.8329 65.1358 16.8714C65.1358 17.8666 65.3954 18.7896 65.9002 19.6406C66.405 20.506 67.0829 21.1838 67.9339 21.6742C68.756 22.1935 69.6935 22.4531 70.7319 22.4531C71.7271 22.4531 72.6502 22.1935 73.5012 21.6887C74.3666 21.1838 75.0444 20.506 75.5637 19.655C76.0541 18.804 76.2992 17.881 76.2992 16.8569C76.2992 15.8617 76.0396 14.9387 75.5348 14.0877C75.0444 13.2223 74.3666 12.53 73.5156 12.0108Z" fill="white"/>
<g opacity="0.6">
<path d="M5 30.5625H6.55769V30.8798H5.375V31.8317H6.45673V32.1346H5.375V33.4471H5V30.5625Z" fill="white"/>
<path d="M9.25 30.5625V33.4471H8.875V30.5625H9.25Z" fill="white"/>
<path d="M11.7031 33.4471V30.5625H12.107L13.03 32.0192C13.2464 32.351 13.405 32.6683 13.5493 32.9567H13.5637C13.5349 32.5673 13.5204 32.2211 13.5204 31.774V30.5625H13.8666V33.4471H13.4916L12.5685 31.976C12.3666 31.6586 12.1791 31.3269 12.0349 31.0096H12.0204C12.0349 31.3702 12.0493 31.7163 12.0493 32.2067V33.4327H11.7031V33.4471Z" fill="white"/>
<path d="M16.8017 32.5385L16.4988 33.4471H16.1094L17.0901 30.5625H17.5373L18.518 33.4471H18.1142L17.8113 32.5385H16.8017ZM17.7392 32.25L17.4507 31.4135C17.393 31.226 17.3498 31.0529 17.3065 30.8798H17.2921C17.2488 31.0529 17.2055 31.226 17.1478 31.399L16.8594 32.2356H17.7392V32.25Z" fill="white"/>
<path d="M20.75 33.4471V30.5625H21.1538L22.0769 32.0192C22.2933 32.351 22.4519 32.6683 22.5962 32.9567H22.6106C22.5817 32.5673 22.5673 32.2211 22.5673 31.774V30.5625H22.9135V33.4471H22.5385L21.6154 31.976C21.4135 31.6586 21.226 31.3269 21.0817 31.0096H21.0673C21.0817 31.3702 21.0962 31.7163 21.0962 32.2067V33.4327H20.75V33.4471Z" fill="white"/>
<path d="M27.3642 33.357C27.2344 33.4291 26.9603 33.4868 26.5998 33.4868C25.7921 33.4868 25.1719 32.9675 25.1719 32.03C25.1719 31.1214 25.7776 30.5156 26.6719 30.5156C27.0324 30.5156 27.2632 30.5877 27.3498 30.6454L27.2488 30.9483C27.119 30.8762 26.9171 30.8329 26.6719 30.8329C25.994 30.8329 25.5469 31.2656 25.5469 32.0156C25.5469 32.7223 25.9507 33.1695 26.6574 33.1695C26.8882 33.1695 27.119 33.1262 27.2632 33.0541L27.3642 33.357Z" fill="white"/>
<path d="M31.1328 32.0913H30.0078V33.1298H31.2626V33.4471H29.6328V30.5625H31.1905V30.8798H30.0078V31.7885H31.1184V32.0913H31.1328Z" fill="white"/>
<path d="M36.1719 30.6046C36.3594 30.5613 36.6334 30.5469 36.893 30.5469C37.2969 30.5469 37.5565 30.619 37.7296 30.7921C37.8738 30.9219 37.9603 31.1094 37.9603 31.3401C37.9603 31.7151 37.7151 31.9748 37.4123 32.0757V32.0901C37.6286 32.1623 37.7584 32.3786 37.8305 32.6671C37.9315 33.0709 37.9892 33.3449 38.0469 33.4603H37.6574C37.6142 33.3738 37.5421 33.1286 37.4699 32.768C37.3834 32.3642 37.2248 32.2199 36.893 32.2055H36.5469V33.4603H36.1719V30.6046ZM36.5469 31.9171H36.9219C37.3257 31.9171 37.5709 31.7007 37.5709 31.369C37.5709 30.994 37.2969 30.8353 36.9074 30.8353C36.7344 30.8353 36.6046 30.8498 36.5325 30.8642V31.9171H36.5469Z" fill="white"/>
<path d="M41.7668 32.0913H40.6562V33.1298H41.9111V33.4471H40.2812V30.5625H41.8389V30.8798H40.6562V31.7885H41.7668V32.0913Z" fill="white"/>
<path d="M44.5469 30.5625V33.4471H44.1719V30.5625H44.5469Z" fill="white"/>
<path d="M49.4225 32.1779C49.408 31.774 49.3792 31.2836 49.3792 30.9375H49.3648C49.2638 31.2692 49.1484 31.6442 49.0042 32.0337L48.4994 33.4327H48.2109L47.735 32.0625C47.6052 31.6586 47.4898 31.2836 47.4032 30.9375H47.3888C47.3744 31.2981 47.36 31.774 47.3311 32.2067L47.259 33.4471H46.8984L47.1004 30.5625H47.5763L48.0667 31.9615C48.1821 32.3221 48.2831 32.6394 48.3552 32.9423H48.3696C48.4417 32.6538 48.5427 32.3365 48.6725 31.9615L49.1917 30.5625H49.6677L49.8407 33.4471H49.4657L49.4225 32.1779Z" fill="white"/>
<path d="M52.6689 32.5385L52.366 33.4471H51.9766L52.9573 30.5625H53.4044L54.3852 33.4471H53.9814L53.6785 32.5385H52.6689ZM53.6064 32.25L53.3179 31.4135C53.2602 31.226 53.2169 31.0529 53.1737 30.8798H53.1593C53.116 31.0529 53.0727 31.226 53.015 31.399L52.7266 32.2356H53.6064V32.25Z" fill="white"/>
<path d="M58.7548 33.3149C58.5817 33.3726 58.25 33.4736 57.8606 33.4736C57.4279 33.4736 57.0673 33.3582 56.7788 33.0986C56.5337 32.8534 56.375 32.4784 56.375 32.0168C56.375 31.1514 56.9663 30.5312 57.9327 30.5312C58.2644 30.5312 58.5385 30.6034 58.6538 30.6611L58.5529 30.9639C58.3942 30.8918 58.2067 30.8341 57.9183 30.8341C57.2115 30.8341 56.7644 31.2668 56.7644 31.988C56.7644 32.7235 57.1971 33.1562 57.875 33.1562C58.1202 33.1562 58.2788 33.1274 58.3654 33.0841V32.2187H57.7885V31.9159H58.7404V33.3149H58.7548Z" fill="white"/>
<path d="M61.4922 30.5625V33.4471H61.1172V30.5625H61.4922Z" fill="white"/>
<path d="M63.9297 33.4471V30.5625H64.3335L65.2566 32.0192C65.473 32.351 65.6316 32.6683 65.7758 32.9567H65.7903C65.7614 32.5673 65.747 32.2211 65.747 31.774V30.5625H66.0931V33.4471H65.7181L64.7951 31.976C64.5931 31.6586 64.4056 31.3269 64.2614 31.0096H64.247C64.2614 31.3702 64.2758 31.7163 64.2758 32.2067V33.4327H63.9297V33.4471Z" fill="white"/>
<path d="M70.0481 32.0913H68.9375V33.1298H70.1923V33.4471H68.5625V30.5625H70.1058V30.8798H68.9231V31.7885H70.0337V32.0913H70.0481Z" fill="white"/>
<path d="M72.4519 30.6046C72.6827 30.5757 72.9567 30.5469 73.2452 30.5469C73.7788 30.5469 74.1683 30.6767 74.4135 30.9075C74.6731 31.1382 74.8173 31.47 74.8173 31.9459C74.8173 32.4219 74.6731 32.7969 74.399 33.0709C74.125 33.3449 73.6779 33.4892 73.1154 33.4892C72.8413 33.4892 72.625 33.4748 72.4375 33.4603V30.6046H72.4519ZM72.8269 33.1575C72.9279 33.1719 73.0577 33.1719 73.2019 33.1719C73.9952 33.1719 74.4279 32.7248 74.4279 31.9459C74.4279 31.268 74.0529 30.8353 73.2596 30.8353C73.0721 30.8353 72.9279 30.8498 72.8269 30.8786V33.1575Z" fill="white"/>
</g>
</svg>
