<svg width="68" height="68" viewBox="0 0 68 68" fill="none" xmlns="http://www.w3.org/2000/svg">
<rect width="68" height="68" rx="20" fill="#06BA63"/>
<g clip-path="url(#clip0_2135_44593)">
<path d="M34.232 40.1328C26.9113 40.1328 20.7344 41.329 20.7344 45.9459C20.7344 50.5646 26.9512 51.7188 34.232 51.7188C41.5527 51.7188 47.7296 50.5226 47.7296 45.9057C47.7296 41.287 41.5128 40.1328 34.232 40.1328Z" fill="white"/>
<path opacity="0.4" d="M34.2366 35.7323C39.1937 35.7323 43.1685 31.7346 43.1685 26.7489C43.1685 21.7614 39.1937 17.7656 34.2366 17.7656C29.2795 17.7656 25.3047 21.7614 25.3047 26.7489C25.3047 31.7346 29.2795 35.7323 34.2366 35.7323Z" fill="white"/>
<path opacity="0.4" d="M53.6221 28.8413C54.9046 23.7965 51.1445 19.2656 46.3565 19.2656C45.8359 19.2656 45.3381 19.323 44.8517 19.4204C44.7871 19.4357 44.7149 19.4682 44.6769 19.5255C44.6332 19.5981 44.6655 19.6956 44.713 19.7586C46.1513 21.7881 46.9778 24.2589 46.9778 26.9113C46.9778 29.4528 46.2197 31.8223 44.8897 33.7887C44.7529 33.9913 44.8745 34.2645 45.1158 34.3066C45.4502 34.3658 45.7922 34.3964 46.1418 34.4059C49.6283 34.4977 52.7576 32.2408 53.6221 28.8413Z" fill="white"/>
<path d="M57.2782 40.7253C56.6398 39.357 55.0989 38.4188 52.7562 37.9582C51.6504 37.6869 48.6579 37.3047 45.8744 37.3563C45.8326 37.362 45.8098 37.3907 45.806 37.4098C45.8003 37.4365 45.8117 37.4824 45.8668 37.5111C47.1531 38.1512 52.1254 40.9355 51.5003 46.8078C51.4737 47.0619 51.677 47.2817 51.9297 47.2435C53.1533 47.0677 56.3016 46.3874 57.2782 44.2681C57.8178 43.1483 57.8178 41.847 57.2782 40.7253Z" fill="white"/>
<path opacity="0.4" d="M23.8274 19.4204C23.3429 19.321 22.8432 19.2656 22.3226 19.2656C17.5346 19.2656 13.7745 23.7965 15.0589 28.8414C15.9215 32.2409 19.0508 34.4977 22.5373 34.406C22.8869 34.3965 23.2308 34.364 23.5633 34.3067C23.8046 34.2646 23.9262 33.9913 23.7894 33.7888C22.4594 31.8205 21.7013 29.4529 21.7013 26.9113C21.7013 24.257 22.5297 21.7861 23.968 19.7586C24.0136 19.6956 24.0478 19.5981 24.0022 19.5255C23.9642 19.4663 23.8939 19.4357 23.8274 19.4204Z" fill="white"/>
<path d="M15.9262 37.9566C13.5835 38.4172 12.0445 39.3554 11.4061 40.7237C10.8646 41.8454 10.8646 43.1467 11.4061 44.2685C12.3827 46.3858 15.531 47.068 16.7546 47.2419C17.0073 47.2801 17.2087 47.0623 17.1821 46.8062C16.557 40.9358 21.5293 38.1516 22.8175 37.5114C22.8707 37.4808 22.8821 37.4369 22.8764 37.4082C22.8726 37.3891 22.8517 37.3604 22.8099 37.3566C20.0245 37.3031 17.0339 37.6853 15.9262 37.9566Z" fill="white"/>
</g>
<defs>
<clipPath id="clip0_2135_44593">
<rect width="47" height="35" fill="white" transform="translate(11 17)"/>
</clipPath>
</defs>
</svg>
